<?xml version="1.0" encoding="utf-8"?>
<!-- Generator: Adobe Illustrator 19.0.0, SVG Export Plug-In . SVG Version: 6.00 Build 0)  -->
<svg version="1.1" id="Layer_1" xmlns="http://www.w3.org/2000/svg" xmlns:xlink="http://www.w3.org/1999/xlink" x="0px" y="0px"
	 viewBox="-34 36 130 130" style="enable-background:new -34 36 130 130;" xml:space="preserve">
<style type="text/css">
	.st0{fill:#F7F8F9;}
	.st1{fill:none;stroke:#C6C6C6;stroke-width:4;stroke-linejoin:round;stroke-miterlimit:10;}
	.st2{fill:none;stroke:#C6C6C6;stroke-width:3;stroke-linejoin:round;stroke-miterlimit:10;}
	.st3{fill:#C6C6C6;}
	.st4{fill:#1B75BB;}
	.st5{fill:none;stroke:#1B75BB;stroke-width:4;stroke-linecap:round;stroke-linejoin:round;stroke-miterlimit:10;}
	.st6{fill:#F1F1F2;}
	.st7{fill:#5BCAF4;}
	.st8{fill:none;stroke:#404041;stroke-width:4.1718;stroke-linejoin:round;stroke-miterlimit:10;}
	.st9{fill:none;stroke:#404041;stroke-width:3.1289;stroke-linejoin:round;stroke-miterlimit:10;}
	.st10{fill:none;stroke:#1B75BB;stroke-width:4.1718;stroke-linecap:round;stroke-linejoin:round;stroke-miterlimit:10;}
	.st11{fill:none;stroke:#58595B;stroke-width:4;stroke-linejoin:round;stroke-miterlimit:10;}
	.st12{fill:#3D82C4;}
	.st13{fill:#FFD54E;stroke:#FFFFFF;stroke-width:1.6013;stroke-miterlimit:10;}
	.st14{fill:url(#XMLID_25_);}
	.st15{fill:url(#XMLID_26_);}
	.st16{fill:#231F20;}
</style>
<g id="XMLID_12_">
	<rect id="XMLID_24_" x="-11.5" y="55.5" class="st0" width="72.5" height="10"/>
	<rect id="XMLID_23_" x="-11.5" y="55.5" class="st1" width="73" height="61"/>
	<line id="XMLID_22_" class="st2" x1="-12" y1="65.5" x2="61" y2="65.5"/>
	<path id="XMLID_21_" class="st3" d="M-2.9,60.5c0,0.9-0.7,1.6-1.6,1.6c-0.9,0-1.6-0.7-1.6-1.6c0-0.9,0.7-1.6,1.6-1.6
		C-3.7,58.9-2.9,59.6-2.9,60.5"/>
	<path id="XMLID_20_" class="st4" d="M2.1,60.5c0,0.9-0.7,1.6-1.6,1.6c-0.9,0-1.6-0.7-1.6-1.6c0-0.9,0.7-1.6,1.6-1.6
		C1.3,58.9,2.1,59.6,2.1,60.5"/>
	<path id="XMLID_19_" class="st3" d="M7.1,60.5c0,0.9-0.7,1.6-1.6,1.6c-0.9,0-1.6-0.7-1.6-1.6c0-0.9,0.7-1.6,1.6-1.6
		C6.3,58.9,7.1,59.6,7.1,60.5"/>
	<rect id="XMLID_18_" x="-4.5" y="73.5" class="st1" width="24" height="16"/>
	<rect id="XMLID_17_" x="29.5" y="73.5" class="st1" width="24" height="16"/>
	<line id="XMLID_16_" class="st5" x1="-4" y1="98.5" x2="19" y2="98.5"/>
	<line id="XMLID_15_" class="st5" x1="-4" y1="107.5" x2="19" y2="107.5"/>
	<line id="XMLID_14_" class="st5" x1="30" y1="98.5" x2="53" y2="98.5"/>
	<line id="XMLID_13_" class="st5" x1="30" y1="107.5" x2="53" y2="107.5"/>
	<g id="XMLID_189_">
		<rect id="XMLID_211_" x="8.7" y="70.6" class="st6" width="76.1" height="63.6"/>
		<rect id="XMLID_210_" x="8.7" y="70.6" class="st7" width="75.6" height="10.4"/>
		<rect id="XMLID_209_" x="8.7" y="70.6" class="st8" width="76.1" height="63.6"/>
		<line id="XMLID_208_" class="st9" x1="8.2" y1="81.1" x2="84.3" y2="81.1"/>
		<path id="XMLID_207_" class="st3" d="M17.6,75.9c0,0.9-0.8,1.7-1.7,1.7c-0.9,0-1.7-0.8-1.7-1.7c0-0.9,0.8-1.7,1.7-1.7
			C16.8,74.2,17.6,75,17.6,75.9"/>
		<path id="XMLID_206_" class="st4" d="M22.8,75.9c0,0.9-0.8,1.7-1.7,1.7c-0.9,0-1.7-0.8-1.7-1.7c0-0.9,0.8-1.7,1.7-1.7
			C22.1,74.2,22.8,75,22.8,75.9"/>
		<path id="XMLID_205_" class="st3" d="M28,75.9c0,0.9-0.8,1.7-1.7,1.7c-0.9,0-1.7-0.8-1.7-1.7c0-0.9,0.8-1.7,1.7-1.7
			C27.3,74.2,28,75,28,75.9"/>
		<line id="XMLID_204_" class="st10" x1="16.5" y1="115.5" x2="40.5" y2="115.5"/>
		<line id="XMLID_203_" class="st10" x1="16.5" y1="124.9" x2="40.5" y2="124.9"/>
		<line id="XMLID_202_" class="st10" x1="52" y1="115.5" x2="76" y2="115.5"/>
		<line id="XMLID_201_" class="st10" x1="52" y1="124.9" x2="76" y2="124.9"/>
		<line id="XMLID_200_" class="st10" x1="52" y1="97.8" x2="76" y2="97.8"/>
		<line id="XMLID_199_" class="st10" x1="52" y1="89.4" x2="76" y2="89.4"/>
		<line id="XMLID_198_" class="st10" x1="52" y1="106.1" x2="76" y2="106.1"/>
	</g>
	<rect id="XMLID_11_" x="16.5" y="88.8" class="st11" width="24" height="16"/>
	<circle id="XMLID_10_" class="st12" cx="2.1" cy="120.6" r="24.7"/>
	<circle id="XMLID_9_" class="st13" cx="2.1" cy="120.6" r="20.3"/>
	<linearGradient id="XMLID_25_" gradientUnits="userSpaceOnUse" x1="-6.6133" y1="121.9144" x2="6.1193" y2="130.343">
		<stop  offset="0" style="stop-color:#F9BF2C"/>
		<stop  offset="0.3287" style="stop-color:#FAC332;stop-opacity:0.6713"/>
		<stop  offset="0.7546" style="stop-color:#FDCD42;stop-opacity:0.2454"/>
		<stop  offset="1" style="stop-color:#FFD54E;stop-opacity:0"/>
	</linearGradient>
	<polygon id="XMLID_8_" class="st14" points="-6.4,107.1 9.9,122 6.8,139.4 -9.6,134.9 -7.7,131.7 -7.5,128.1 -6.1,120.6 
		-7.3,118.1 	"/>
	<linearGradient id="XMLID_26_" gradientUnits="userSpaceOnUse" x1="10.7856" y1="118.4731" x2="18.9298" y2="123.8644">
		<stop  offset="0" style="stop-color:#F9BF2C"/>
		<stop  offset="0.3287" style="stop-color:#FAC332;stop-opacity:0.6713"/>
		<stop  offset="0.7546" style="stop-color:#FDCD42;stop-opacity:0.2454"/>
		<stop  offset="1" style="stop-color:#FFD54E;stop-opacity:0"/>
	</linearGradient>
	<path id="XMLID_7_" class="st15" d="M14,106.4l6.8,9.2c0.2,0.3,0.4,0.7,0.4,1.1l0.1,7.3l-1.5,5.1l-5,6.2L9.9,131v-11.7l0.6-9.7
		L14,106.4z"/>
	<g id="XMLID_2_">
		<g id="XMLID_4_">
			<path id="XMLID_6_" class="st12" d="M-9.6,134.9c-0.3,0-0.6-0.3-0.6-0.6v-1.9c0-0.3,0.3-0.6,0.6-0.6c0.6,0,1-0.1,1.2-0.4
				c0.2-0.3,0.4-0.8,0.4-1.5v-4.8c0-2,0.5-3.5,1.6-4.5c-1-1-1.6-2.5-1.6-4.5v-4.8c0-0.7-0.1-1.2-0.4-1.5c-0.2-0.3-0.6-0.4-1.2-0.4
				c-0.2,0-0.3-0.1-0.4-0.2c-0.1-0.1-0.2-0.3-0.2-0.4v-1.9c0-0.3,0.3-0.6,0.6-0.6c1.6,0,2.8,0.4,3.7,1.1c0.9,0.8,1.3,2.1,1.3,3.9
				v4.9c0,1,0.1,1.7,0.4,2.2c0.2,0.4,0.5,0.6,1,0.7c0.3,0,0.5,0.3,0.5,0.6v1.9c0,0.3-0.2,0.5-0.5,0.6c-0.4,0.1-0.7,0.3-1,0.7
				c-0.3,0.5-0.4,1.3-0.4,2.2v4.9c0,1.8-0.5,3.1-1.3,3.9C-6.8,134.5-8,134.9-9.6,134.9z"/>
			<path id="XMLID_5_" class="st12" d="M13.7,134.9c-1.6,0-2.8-0.4-3.7-1.1c-0.9-0.8-1.3-2.1-1.3-3.9V125c0-1-0.1-1.7-0.4-2.2
				c-0.2-0.4-0.5-0.6-1-0.7c-0.3,0-0.5-0.3-0.5-0.6v-1.9c0-0.3,0.2-0.5,0.5-0.6c0.4-0.1,0.7-0.3,1-0.7c0.3-0.5,0.4-1.3,0.4-2.2v-4.9
				c0-1.8,0.5-3.1,1.3-3.9c0.9-0.7,2.1-1.1,3.7-1.1c0.3,0,0.6,0.3,0.6,0.6v1.9c0,0.3-0.3,0.6-0.6,0.6c-0.6,0-1,0.1-1.2,0.4
				c-0.2,0.3-0.4,0.8-0.4,1.5v4.8c0,2-0.5,3.5-1.6,4.5c1,1,1.6,2.5,1.6,4.5v4.8c0,0.7,0.1,1.2,0.4,1.5c0.2,0.3,0.6,0.4,1.2,0.4
				c0.3,0,0.6,0.3,0.6,0.6v1.9C14.3,134.6,14,134.9,13.7,134.9z"/>
		</g>
		<path id="XMLID_3_" class="st16" d="M-1.2,122c-0.3,0-0.6-0.3-0.6-0.6v-1.6c0-0.3,0.3-0.6,0.6-0.6h6.5c0.3,0,0.6,0.3,0.6,0.6v1.6
			c0,0.3-0.3,0.6-0.6,0.6H-1.2z"/>
	</g>
</g>
</svg>
