<?xml version="1.0" encoding="utf-8"?>
<!-- Generator: Adobe Illustrator 19.0.0, SVG Export Plug-In . SVG Version: 6.00 Build 0)  -->
<svg version="1.1" id="Layer_1" xmlns="http://www.w3.org/2000/svg" xmlns:xlink="http://www.w3.org/1999/xlink" x="0px" y="0px"
	 viewBox="-34 36 130 130" style="enable-background:new -34 36 130 130;" xml:space="preserve">
<style type="text/css">
	.st0{fill:#1C75BC;}
	.st1{fill:#21409A;}
	.st2{fill:#FFFFFF;stroke:#FFFFFF;stroke-width:1.2698;stroke-miterlimit:10;}
	.st3{fill:#3D82C4;}
</style>
<g id="Layer_1_1_">
	<g id="XMLID_12_">
		<path id="XMLID_14_" class="st0" d="M93.4,103.6c-0.6-2-1.2-4.1-2-6.1C87,85.4,86.1,83.7,81.5,76c-1-1.7-3.2-4.3-4.5-5.9
			c-1.1-1.4-3.1-2.8-4.8-3.7c-2.8-1.4-6.8-1.6-9.7-0.4c-1.5,0.6-5.4,2.5-5.4,2.5s0.6,3.5,0.9,5c0.3,1.2,0.8,3.2,0.8,3.2l5.1-0.9
			c0,0,0.3,1.3,0.7,2.9c0.1,0.4,0.4,0.8,0.8,0.7c1.2-0.3,3.5-0.9,4.7-1.1c0.6-0.1,1.2-0.3,1.8-0.4c1.1-0.2,1.1-0.2,1.4,0.6
			c0.5,1.3,1.1,2.6,1.5,3.7l1.5,3.7c0.9,2.2,1.9,4.2,1.7,6.6c-0.2,2.7-0.6,5.1-1.2,7.5c-2-0.9-3-1.1-6-1.1c-2.5,0-5,0.9-7.1,2.3
			c-0.1,0.1-0.2,0.2-0.4,0.3c-2-2.2-4.4-4.2-7.5-4.5c-5.3-0.5-9.8,3.8-9.8,3.8l1.6,1.5c0,0,4.6-3.4,7.4-3.3c2.7,0.1,4.6,1.5,6.3,3.5
			c-1.6,1.2-4.6,3.8-4.6,3.8l1.7,1.5c0,0,6-6,11.6-6.9c2.2-0.3,4.1-0.3,5.9,0.9c2,1.3,5.3,4.9,5.3,4.9l1.5-1.4c0,0-2.6-2.7-4.2-3.9
			c0.1-0.3,0.1-0.3,0.4-1.4c0.6-2.3,1.5-5.8,1.3-8.8c-0.1-1.7-1.1-4.3-2.1-6.6c-0.6-1.5-1.7-4-2.3-5.5c-0.4-0.9-0.9-2.7-1.9-3.2
			c-0.8-0.4-2,0-2.8,0.2c-1.4,0.3-3.5,0.8-4.9,1.1c-0.6-1.9-1-3.7-1-3.7s-3.5,0.8-5,0.9c-0.6-2.1-0.9-4.5-0.9-4.5s0.6-0.5,2.4-1.2
			c3.2-1.3,6.5-1.9,10.7,0.1c2.8,1.3,5.6,5.6,7.5,8.4c3.8,5.5,6,11.3,8.3,17.9c1.2,3.4,2.5,6.8,3.4,10.3c0.5,1.9,0.9,3.7-0.4,5.4
			c-1.1,1.4-2.9,1.4-4.4,2.1c-1.7,0.9-2.9,2.4-4.6,3.1c-1.8,0.7-3.7,1.2-5.7,1.5c-4.4,0.8-14,0.9-14,0.9s-0.7,3.6-1.2,4.9
			c-1.6,4.8-2.7,6.6-4.6,9.5c-0.4,0.7-1,1.3-1,1.3l1.5,1.4c0,0,1.1-1.6,1.4-2c0.3-0.5,1.6-2.6,2.7-4.9c1.1-2.2,2.9-7.7,2.8-8
			c4.2-0.2,8.4-0.4,12.5-1.1c2-0.3,4-0.6,6.4-1.7c2-0.9,4.4-3,4.9-3.2c0.7-0.3,3-0.8,4.3-1.9c1.1-1,1.9-2.2,2.1-3.6
			C94.6,107.3,93.9,105.4,93.4,103.6z"/>
		<path id="XMLID_13_" class="st0" d="M56.7,117.8c0,0,0,2.4-0.8,4.8c-0.6,1.8-2.8,4.8-2.8,4.8l1.2,1.1c0,0,2.1-2.5,3-5.1
			c1.1-3.3,1.1-5.9,1.1-5.9L56.7,117.8z"/>
	</g>
	<g id="XMLID_3_">
		<path id="XMLID_5_" class="st0" d="M-30.3,103.3c0.6-2,1.3-4,2.1-6c4.7-12,5.6-13.7,10.4-21.2c1.1-1.7,3.3-4.2,4.6-5.7
			c1.2-1.4,3.2-2.7,4.9-3.5c2.9-1.3,6.8-1.4,9.7-0.2c1.5,0.6,5.3,2.7,5.3,2.7s-0.7,3.5-1.1,5c-0.3,1.2-0.9,3.1-0.9,3.1l-5-1
			c0,0-0.3,1.2-0.8,2.8C-1.2,79.7-1.5,80.1-2,80c-1.2-0.3-3.4-1-4.6-1.3c-0.6-0.2-1.2-0.3-1.8-0.5c-1.1-0.2-1-0.3-1.4,0.6
			c-0.6,1.3-1.1,2.6-1.6,3.6l-1.5,3.6c-1,2.2-2,4.1-1.9,6.6c0.1,2.7,0.5,5.1,1,7.6c2-0.8,3-1,6-0.9c2.5,0.1,5,1,7,2.5
			c0.1,0.1,0.2,0.2,0.4,0.3c2-2.2,4.5-4.1,7.6-4.3c5.3-0.4,9.7,4,9.7,4l-1.7,1.5c0,0-4.5-3.5-7.3-3.5c-2.7,0-4.6,1.4-6.4,3.3
			c1.5,1.2,4.5,4,4.5,4l-1.7,1.5c0,0-5.8-6.1-11.4-7.2c-2.2-0.4-4.1-0.4-5.9,0.8c-2,1.2-5.4,4.7-5.4,4.7l-1.5-1.4
			c0,0,2.7-2.6,4.3-3.8c-0.1-0.3-0.1-0.3-0.4-1.4c-0.6-2.3-1.4-5.8-1-8.8c0.2-1.7,1.2-4.3,2.3-6.6c0.6-1.4,1.8-4,2.5-5.4
			c0.4-0.9,1-2.6,2-3.2c0.8-0.4,2,0.1,2.8,0.3c1.4,0.4,3.5,0.9,4.9,1.2c0.6-1.9,1.1-3.6,1.1-3.6s3.4,0.9,4.9,1.1
			c0.7-2.1,1.1-4.4,1.1-4.4S4,70.4,2.2,69.6c-3.1-1.3-6.5-2-10.7-0.2c-2.8,1.3-5.8,5.4-7.8,8.2c-3.9,5.1-6.3,10.8-8.7,17.4
			c-1.3,3.4-2.7,6.7-3.7,10.2c-0.6,1.9-1,3.7,0.3,5.4c1,1.4,2.8,1.4,4.3,2.2c1.7,0.9,2.8,2.5,4.6,3.3s3.7,1.3,5.6,1.7
			c4.4,0.9,14,1.3,14,1.3s0.6,3.6,1,4.9c1.4,4.9,2.5,6.7,4.3,9.6c0.4,0.7,0.9,1.3,0.9,1.3l-1.5,1.4c0,0-1.1-1.6-1.3-2
			c-0.3-0.5-1.5-2.7-2.5-4.9c-1-2.3-2.7-7.8-2.6-8c-4.2-0.4-8.4-0.8-12.4-1.6c-1.9-0.4-3.9-0.7-6.3-1.9c-2-1-4.3-3.1-4.8-3.3
			c-0.7-0.3-3-0.9-4.2-2c-1.1-1-1.8-2.3-2-3.7C-31.6,107-30.8,105.1-30.3,103.3z"/>
		<path id="XMLID_4_" class="st0" d="M6,118.5c0,0,0,2.4,0.7,4.8c0.5,1.8,2.6,4.9,2.6,4.9l-1.3,1c0,0-2-2.6-2.8-5.1c-1-3.3-1-6-1-6
			L6,118.5z"/>
	</g>
	<g id="XMLID_15_">
		<path id="XMLID_16_" class="st1" d="M16.5,79.5L15.4,85h-4.6l5.3-24.3h5.7L26.4,85h-4.6l-1-5.5H16.5z M20.4,75.8l-0.8-5.1
			c-0.3-1.5-0.6-3.9-0.8-5.5h-0.1c-0.3,1.6-0.6,4.1-0.9,5.5l-0.9,5h3.5V75.8z"/>
		<path id="XMLID_19_" class="st1" d="M29.1,61.1c1.3-0.3,3.1-0.5,4.9-0.5c2.8,0,5,0.4,6.6,1.9c1.4,1.3,2.1,3.3,2.1,5.3
			c0,2.6-0.8,4.5-2.1,5.8c-1.5,1.6-4,2.3-5.9,2.3c-0.3,0-0.6,0-0.9,0v9h-4.7C29.1,84.9,29.1,61.1,29.1,61.1z M33.8,72.1
			c0.2,0.1,0.5,0.1,0.8,0.1c2.4,0,3.5-1.7,3.5-4c0-2.1-0.9-3.8-3.1-3.8c-0.4,0-0.9,0.1-1.2,0.2C33.8,64.6,33.8,72.1,33.8,72.1z"/>
		<path id="XMLID_22_" class="st1" d="M50.3,60.8V85h-4.7V60.8H50.3z"/>
	</g>
	<g id="XMLID_420_">
		<circle id="XMLID_429_" cx="31.5" cy="119.1" r="19.6"/>
		<circle id="XMLID_428_" class="st2" cx="31.5" cy="119.1" r="16.1"/>
		<g id="XMLID_421_">
			<g id="XMLID_423_">
				<path id="XMLID_425_" class="st3" d="M22.3,130.4c-0.2,0-0.4-0.2-0.4-0.4v-1.5c0-0.2,0.2-0.4,0.4-0.4c0.5,0,0.8-0.1,1-0.3
					c0.2-0.2,0.3-0.7,0.3-1.2v-3.8c0-1.6,0.4-2.8,1.2-3.6c-0.8-0.8-1.2-1.9-1.2-3.6v-3.8c0-0.6-0.1-1-0.3-1.2s-0.5-0.3-1-0.3
					c-0.1,0-0.2,0-0.3-0.1s-0.1-0.2-0.1-0.3v-1.5c0-0.2,0.2-0.4,0.4-0.4c1.3,0,2.2,0.3,2.9,0.9s1.1,1.6,1.1,3.1v3.9
					c0,0.8,0.1,1.4,0.3,1.8c0.2,0.3,0.4,0.5,0.8,0.6c0.2,0,0.4,0.2,0.4,0.4v1.5c0,0.2-0.2,0.4-0.4,0.4c-0.3,0-0.6,0.2-0.8,0.6
					s-0.3,1-0.3,1.8v3.9c0,1.4-0.4,2.4-1.1,3.1C24.5,130.1,23.5,130.4,22.3,130.4z"/>
				<path id="XMLID_424_" class="st3" d="M40.8,130.4c-1.3,0-2.2-0.3-2.9-0.9c-0.7-0.6-1.1-1.6-1.1-3.1v-3.9c0-0.8-0.1-1.4-0.3-1.8
					c-0.2-0.3-0.4-0.5-0.8-0.6c-0.2,0-0.4-0.2-0.4-0.4v-1.5c0-0.2,0.2-0.4,0.4-0.4c0.3,0,0.6-0.2,0.8-0.6c0.2-0.4,0.3-1,0.3-1.8
					v-3.9c0-1.4,0.4-2.4,1.1-3.1c0.7-0.6,1.7-0.9,2.9-0.9c0.2,0,0.4,0.2,0.4,0.4v1.5c0,0.2-0.2,0.4-0.4,0.4c-0.5,0-0.8,0.1-1,0.3
					c-0.2,0.2-0.3,0.7-0.3,1.2v3.8c0,1.6-0.4,2.8-1.2,3.6c0.8,0.8,1.2,1.9,1.2,3.6v3.8c0,0.6,0.1,1,0.3,1.2c0.2,0.2,0.5,0.3,1,0.3
					c0.2,0,0.4,0.2,0.4,0.4v2C41.2,130.2,41,130.4,40.8,130.4z"/>
			</g>
			<path id="XMLID_422_" d="M28.9,120.2c-0.2,0-0.4-0.2-0.4-0.4v-1.3c0-0.2,0.2-0.4,0.4-0.4H34c0.2,0,0.4,0.2,0.4,0.4v1.3
				c0,0.2-0.2,0.4-0.4,0.4H28.9z"/>
		</g>
	</g>
</g>
</svg>
