<?xml version="1.0" encoding="utf-8"?>
<!-- Generator: Adobe Illustrator 19.0.0, SVG Export Plug-In . SVG Version: 6.00 Build 0)  -->
<svg version="1.1" id="Layer_1" xmlns="http://www.w3.org/2000/svg" xmlns:xlink="http://www.w3.org/1999/xlink" x="0px" y="0px"
	 viewBox="-34 36 130 130" style="enable-background:new -34 36 130 130;" xml:space="preserve">
<style type="text/css">
	.st0{fill:url(#XMLID_2_);}
	.st1{fill:url(#XMLID_3_);}
	.st2{fill:#3D82C4;}
	.st3{fill:url(#XMLID_4_);}
	.st4{fill:#FFFFFF;stroke:#FFFFFF;stroke-width:1.535;stroke-miterlimit:10;}
</style>
<g id="Layer_3">
	<g id="XMLID_142_">
		
			<linearGradient id="XMLID_2_" gradientUnits="userSpaceOnUse" x1="-12.3" y1="73.7" x2="76.3" y2="73.7" gradientTransform="matrix(1 0 0 -1 0 204)">
			<stop  offset="0.237" style="stop-color:#3D82C4"/>
			<stop  offset="1" style="stop-color:#21409A"/>
		</linearGradient>
		<path id="XMLID_141_" class="st0" d="M32,132.7c-22.6,0-41.2-7.5-43.9-17.2h-0.4V128h0.4c2.8,9.7,21.4,17.2,43.9,17.2
			s41.2-7.5,43.9-17.2h0.4v-12.6h-0.4C73.2,125.1,54.6,132.7,32,132.7z"/>
		
			<linearGradient id="XMLID_3_" gradientUnits="userSpaceOnUse" x1="-12.3" y1="91.8" x2="76.3" y2="91.8" gradientTransform="matrix(1 0 0 -1 0 204)">
			<stop  offset="0.237" style="stop-color:#3D82C4"/>
			<stop  offset="1" style="stop-color:#21409A"/>
		</linearGradient>
		<path id="XMLID_140_" class="st1" d="M32,114.6c-22.6,0-41.2-7.5-43.9-17.2h-0.4v12.5h0.4c2.8,9.7,21.4,17.2,43.9,17.2
			s41.2-7.5,43.9-17.2h0.4V97.3h-0.4C73.2,107,54.6,114.6,32,114.6z"/>
		<ellipse id="XMLID_139_" class="st2" cx="32" cy="76.6" rx="44.3" ry="19.8"/>
		
			<linearGradient id="XMLID_4_" gradientUnits="userSpaceOnUse" x1="-12.3" y1="110.5" x2="76.3" y2="110.5" gradientTransform="matrix(1 0 0 -1 0 204)">
			<stop  offset="0.237" style="stop-color:#3D82C4"/>
			<stop  offset="1" style="stop-color:#21409A"/>
		</linearGradient>
		<path id="XMLID_138_" class="st3" d="M32,95.9c-22.6,0-41.2-7.5-43.9-17.2h-0.4v12.5h0.4c2.8,9.7,21.4,17.2,43.9,17.2
			s41.2-7.5,43.9-17.2h0.4V78.6h-0.4C73.2,88.4,54.6,95.9,32,95.9z"/>
		<g id="XMLID_144_">
			<ellipse id="XMLID_152_" cx="32.5" cy="76.4" rx="35.1" ry="16"/>
			<ellipse id="XMLID_151_" class="st4" cx="32.5" cy="76.4" rx="28.8" ry="13.1"/>
			<g id="XMLID_146_">
				<g id="XMLID_148_">
					<path id="XMLID_150_" class="st2" d="M15.9,85.7c-0.4,0-0.8-0.2-0.8-0.4v-1.2c0-0.2,0.4-0.4,0.8-0.4c0.9,0,1.4-0.1,1.7-0.3
						c0.3-0.2,0.5-0.5,0.5-1v-3.1c0-1.3,0.7-2.3,2.2-2.9c-1.5-0.6-2.2-1.6-2.2-2.9v-3.1c0-0.5-0.2-0.8-0.5-1
						c-0.3-0.2-0.9-0.3-1.7-0.3c-0.2,0-0.4,0-0.6-0.1c-0.2-0.1-0.2-0.2-0.2-0.3v-1.2c0-0.2,0.4-0.4,0.8-0.4c2.3,0,4,0.2,5.2,0.7
						c1.3,0.5,1.9,1.3,1.9,2.5v3.2c0,0.6,0.2,1.1,0.6,1.4c0.3,0.3,0.7,0.4,1.3,0.5c0.4,0,0.7,0.2,0.7,0.4V77c0,0.2-0.3,0.3-0.7,0.4
						c-0.6,0-1,0.2-1.3,0.5c-0.4,0.3-0.6,0.8-0.6,1.4v3.2c0,1.2-0.6,2-1.9,2.5C19.9,85.5,18.2,85.7,15.9,85.7z"/>
					<path id="XMLID_149_" class="st2" d="M49,85.7c-2.3,0-4-0.2-5.2-0.7c-1.3-0.5-1.9-1.3-1.9-2.5v-3.2c0-0.6-0.2-1.1-0.6-1.4
						c-0.3-0.3-0.7-0.4-1.3-0.5c-0.4,0-0.7-0.2-0.7-0.4v-1.2c0-0.2,0.3-0.3,0.7-0.4c0.6,0,1-0.2,1.3-0.5c0.4-0.3,0.6-0.8,0.6-1.4
						v-3.2c0-1.2,0.6-2,1.9-2.5c1.2-0.5,3-0.7,5.2-0.7c0.4,0,0.8,0.2,0.8,0.4v1.2c0,0.2-0.4,0.4-0.8,0.4c-0.9,0-1.4,0.1-1.7,0.3
						c-0.3,0.2-0.5,0.5-0.5,1v3.1c0,1.3-0.7,2.3-2.2,2.9c1.5,0.6,2.2,1.6,2.2,2.9v3.1c0,0.5,0.2,0.8,0.5,1c0.3,0.2,0.9,0.3,1.7,0.3
						c0.4,0,0.8,0.2,0.8,0.4v1.2C49.8,85.5,49.4,85.7,49,85.7z"/>
				</g>
				<path id="XMLID_147_" d="M27,76.8v-0.7c0-0.3,0.2-0.5,0.5-0.5h9.7c0.3,0,0.5,0.2,0.5,0.5v0.7c0,0.3-0.2,0.5-0.5,0.5h-9.7
					C27.3,77.3,27,77.1,27,76.8z"/>
			</g>
		</g>
	</g>
</g>
</svg>
