<?xml version="1.0" encoding="utf-8"?>
<!-- Generator: Adobe Illustrator 19.0.0, SVG Export Plug-In . SVG Version: 6.00 Build 0)  -->
<svg version="1.1" id="Layer_1" xmlns="http://www.w3.org/2000/svg" xmlns:xlink="http://www.w3.org/1999/xlink" x="0px" y="0px"
	 viewBox="-34 36 130 130" style="enable-background:new -34 36 130 130;" xml:space="preserve">
<style type="text/css">
	.st0{fill:#F1F2F2;}
	.st1{fill:#5BCBF5;}
	.st2{fill:none;stroke:#414042;stroke-width:4.1718;stroke-linejoin:round;stroke-miterlimit:10;}
	.st3{fill:none;stroke:#414042;stroke-width:3.1289;stroke-linejoin:round;stroke-miterlimit:10;}
	.st4{fill:#C8C7C7;}
	.st5{fill:#1C75BC;}
	.st6{fill:none;stroke:#1C75BC;stroke-width:4.1718;stroke-linecap:round;stroke-linejoin:round;stroke-miterlimit:10;}
	.st7{fill:#FFFFFF;stroke:#FFFFFF;stroke-width:0.7879;stroke-miterlimit:10;}
	.st8{fill:#3D82C4;}
	.st9{fill:#F9F9FA;}
</style>
<g id="Layer_2">
	<g id="XMLID_115_">
		<rect id="XMLID_137_" x="-17.1" y="75.8" class="st0" width="76.1" height="63.6"/>
		<rect id="XMLID_136_" x="-17.1" y="75.8" class="st1" width="75.6" height="10.4"/>
		<rect id="XMLID_135_" x="-17.1" y="75.8" class="st2" width="76.1" height="63.6"/>
		<line id="XMLID_134_" class="st3" x1="-17.6" y1="86.3" x2="58.5" y2="86.3"/>
		<path id="XMLID_133_" class="st4" d="M-8.2,81.1c0,0.9-0.8,1.7-1.7,1.7c-0.9,0-1.7-0.8-1.7-1.7s0.8-1.7,1.7-1.7
			C-9,79.4-8.2,80.2-8.2,81.1"/>
		<path id="XMLID_132_" class="st5" d="M-3,81.1c0,0.9-0.8,1.7-1.7,1.7c-0.9,0-1.7-0.8-1.7-1.7s0.8-1.7,1.7-1.7
			C-3.8,79.4-3,80.2-3,81.1"/>
		<path id="XMLID_131_" class="st4" d="M2.2,81.1c0,0.9-0.8,1.7-1.7,1.7s-1.7-0.8-1.7-1.7s0.8-1.7,1.7-1.7
			C1.5,79.4,2.2,80.2,2.2,81.1"/>
		<line id="XMLID_130_" class="st6" x1="-9.3" y1="120.7" x2="14.7" y2="120.7"/>
		<line id="XMLID_129_" class="st6" x1="-9.3" y1="130.1" x2="14.7" y2="130.1"/>
		<line id="XMLID_128_" class="st6" x1="26.2" y1="120.7" x2="50.1" y2="120.7"/>
		<line id="XMLID_127_" class="st6" x1="26.2" y1="130.1" x2="50.1" y2="130.1"/>
		<line id="XMLID_126_" class="st6" x1="26.2" y1="103" x2="50.1" y2="103"/>
		<line id="XMLID_125_" class="st6" x1="26.2" y1="94.6" x2="50.1" y2="94.6"/>
		<line id="XMLID_124_" class="st6" x1="26.2" y1="111.3" x2="50.1" y2="111.3"/>
		<g id="XMLID_116_">
			<circle id="XMLID_123_" cx="1.6" cy="103" r="12.2"/>
			<circle id="XMLID_122_" class="st7" cx="1.6" cy="103" r="10"/>
			<g id="XMLID_117_">
				<g id="XMLID_119_">
					<path id="XMLID_121_" class="st8" d="M-4.2,110c-0.2,0-0.3-0.1-0.3-0.3v-0.9c0-0.2,0.1-0.3,0.3-0.3c0.3,0,0.5-0.1,0.6-0.2
						s0.2-0.4,0.2-0.8v-2.4c0-1,0.3-1.7,0.8-2.2c-0.5-0.5-0.8-1.2-0.8-2.2v-2.4c0-0.3-0.1-0.6-0.2-0.8c-0.1-0.1-0.3-0.2-0.6-0.2
						c-0.1,0-0.1,0-0.2-0.1s-0.1-0.1-0.1-0.2v-0.9c0-0.2,0.1-0.3,0.3-0.3c0.8,0,1.4,0.2,1.8,0.6c0.4,0.4,0.7,1,0.7,1.9v2.4
						c0,0.5,0.1,0.8,0.2,1.1c0.1,0.2,0.3,0.3,0.5,0.3c0.1,0,0.2,0.1,0.2,0.3v0.9c0,0.1-0.1,0.3-0.2,0.3c-0.2,0-0.4,0.1-0.5,0.3
						c-0.1,0.3-0.2,0.6-0.2,1.1v2.4c0,0.9-0.2,1.5-0.7,1.9C-2.8,109.8-3.4,110-4.2,110z"/>
					<path id="XMLID_120_" class="st8" d="M7.3,110c-0.8,0-1.4-0.2-1.8-0.6c-0.4-0.4-0.7-1-0.7-1.9v-2.4c0-0.5-0.1-0.8-0.2-1.1
						c-0.1-0.2-0.3-0.3-0.5-0.3c-0.1,0-0.2-0.1-0.2-0.3v-0.9c0-0.1,0.1-0.3,0.2-0.3c0.2,0,0.4-0.1,0.5-0.3c0.1-0.3,0.2-0.6,0.2-1.1
						v-2.4c0-0.9,0.2-1.5,0.7-1.9c0.4-0.4,1-0.6,1.8-0.6c0.2,0,0.3,0.1,0.3,0.3v0.9c0,0.2-0.1,0.3-0.3,0.3c-0.3,0-0.5,0.1-0.6,0.2
						c-0.1,0.1-0.2,0.4-0.2,0.8v2.4c0,1-0.3,1.7-0.8,2.2c0.5,0.5,0.8,1.2,0.8,2.2v2.4c0,0.3,0.1,0.6,0.2,0.8
						c0.1,0.1,0.3,0.2,0.6,0.2c0.2,0,0.3,0.1,0.3,0.3v0.9C7.6,109.9,7.5,110,7.3,110z"/>
				</g>
				<path id="XMLID_118_" d="M0,103.6c-0.2,0-0.3-0.1-0.3-0.3v-0.8c0-0.2,0.1-0.3,0.3-0.3h3.2c0.2,0,0.3,0.1,0.3,0.3v0.8
					c0,0.2-0.1,0.3-0.3,0.3H0z"/>
			</g>
		</g>
	</g>
	<g id="XMLID_107_">
		<path id="XMLID_112_" class="st9" d="M83.6,109.2L73.4,99c-0.2-0.2-0.3-0.3-0.5-0.4c5.4-8.7,4.4-20.2-3.1-27.8
			c-4.2-4.2-9.9-6.6-15.9-6.6S42.3,66.5,38,70.8c-4.2,4.2-6.6,9.9-6.6,15.9s2.3,11.6,6.6,15.9c4.2,4.2,9.9,6.6,15.9,6.6
			c4.5,0,8.9-1.3,12.6-3.8c0.1,0.1,0.2,0.2,0.3,0.4L77,115.9c0.9,0.9,2.1,1.4,3.3,1.4c1.3,0,2.4-0.5,3.3-1.4s1.4-2.1,1.4-3.3
			C85,111.3,84.5,110.1,83.6,109.2 M53.9,99.8c-3.5,0-6.8-1.4-9.2-3.8c-5.1-5.1-5.1-13.4,0-18.4c2.5-2.5,5.7-3.8,9.2-3.8
			s6.8,1.4,9.2,3.8c5.1,5.1,5.1,13.4,0,18.4C60.7,98.4,57.4,99.8,53.9,99.8"/>
		<path id="XMLID_109_" class="st5" d="M53.9,106c-5.2,0-10-2-13.6-5.7c-7.5-7.5-7.5-19.8,0-27.3c3.6-3.6,8.5-5.7,13.6-5.7
			c5.2,0,10,2,13.6,5.7c7.5,7.5,7.5,19.8,0,27.3C63.9,104,59.1,106,53.9,106 M53.9,70.6c-4.3,0-8.4,1.7-11.4,4.7
			c-6.3,6.3-6.3,16.6,0,22.9c3.1,3.1,7.1,4.7,11.4,4.7s8.4-1.7,11.4-4.7c6.3-6.3,6.3-16.6,0-22.9C62.3,72.3,58.3,70.6,53.9,70.6"/>
		<path id="XMLID_108_" d="M80.7,114.5c-0.4,0-0.8-0.2-1.1-0.5l-8.1-8.1c-0.6-0.6-0.6-1.6,0-2.2s1.6-0.6,2.2,0l8.1,8.1
			c0.6,0.6,0.6,1.6,0,2.2C81.5,114.3,81.1,114.5,80.7,114.5"/>
	</g>
</g>
</svg>
