<?xml version="1.0" encoding="utf-8"?>
<!-- Generator: Adobe Illustrator 19.0.0, SVG Export Plug-In . SVG Version: 6.00 Build 0)  -->
<svg version="1.1" id="Layer_1" xmlns="http://www.w3.org/2000/svg" xmlns:xlink="http://www.w3.org/1999/xlink" x="0px" y="0px"
	 viewBox="0 0 315.6 83.2" style="enable-background:new 0 0 315.6 83.2;" xml:space="preserve">
<style type="text/css">
	.st0{fill:#3D82C4;}
</style>
<g id="XMLID_3_">
	<g id="XMLID_42_">
		<path id="XMLID_45_" class="st0" d="M206.8,37.6c-1.4,0.2-2.5,0.9-3.1,2.3c-0.7,1.3-1,3.2-1,5.6v11c0,3.7-0.9,6.3-2.6,7.8
			c-1.7,1.5-4.3,2.2-7.5,2.2v-4.3c1.8,0,3.1-0.5,3.8-1.4c0.7-0.9,1.1-2.3,1.1-4.3v-11c0-5,1.5-8.4,4.4-10.2c-3-1.8-4.4-5.1-4.4-10.1
			v-11c0-1.9-0.4-3.4-1.1-4.3c-0.7-0.9-2-1.4-3.8-1.4V4.4c3.3,0,5.8,0.7,7.5,2.2c1.7,1.5,2.6,4.1,2.6,7.8v11c0,2.4,0.3,4.3,1,5.6
			c0.7,1.3,1.7,2.1,3.1,2.3V37.6z"/>
		<path id="XMLID_43_" class="st0" d="M228.5,33.4c1.4-0.2,2.5-0.9,3.1-2.3c0.7-1.3,1-3.2,1-5.6v-11c0-3.7,0.9-6.3,2.6-7.8
			c1.7-1.5,4.2-2.2,7.5-2.2v4.3c-1.8,0-3.1,0.5-3.8,1.4c-0.7,0.9-1.1,2.3-1.1,4.3v11c0,5-1.5,8.4-4.4,10.1c3,1.8,4.4,5.1,4.4,10.2
			v11c0,1.9,0.4,3.4,1.1,4.3c0.7,0.9,2,1.4,3.8,1.4v4.3c-3.3,0-5.8-0.7-7.5-2.2c-1.7-1.5-2.6-4.1-2.6-7.8v-11c0-2.4-0.3-4.3-1-5.6
			c-0.7-1.3-1.7-2.1-3.1-2.3V33.4z"/>
	</g>
	<g id="XMLID_4_">
		<rect id="XMLID_41_" x="210.2" y="33.7" width="14.6" height="3.7"/>
		<g id="XMLID_35_">
			<path id="XMLID_39_" d="M274.2,32.6v33h-4.7v-4.5c-0.8,1.7-2,2.9-3.8,3.7c-1.8,0.8-4.1,1.2-7,1.2c-4.3,0-7.3-0.9-9.1-2.6
				s-2.6-4.8-2.6-9.2V32.6h4.9v20.6c0,3.4,0.5,5.7,1.5,6.8c1,1.1,3,1.6,6,1.6c3.4,0,5.9-0.8,7.5-2.4c1.6-1.6,2.4-4.1,2.4-7.5V32.6
				H274.2z"/>
			<path id="XMLID_36_" d="M279.2,65.6V18.9h4.9v18.4c0.9-1.8,2.2-3.1,3.8-3.9c1.6-0.8,3.8-1.2,6.5-1.2c4.7,0,8,1,10,2.9
				c1.9,1.9,2.9,5.3,2.9,10.1V53c0,4.8-1,8.2-2.9,10.1c-1.9,1.9-5.3,2.9-10,2.9c-2.8,0-5.1-0.4-6.8-1.3c-1.7-0.9-2.9-2.3-3.7-4.2
				v5.1H279.2z M284.1,46.4v5.4c0,3.4,0.8,5.9,2.4,7.5c1.6,1.6,4.2,2.3,7.7,2.3c3.2,0,5.3-0.6,6.4-1.7s1.6-3.8,1.6-8v-5.6
				c0-4.2-0.5-6.8-1.6-8c-1.1-1.1-3.2-1.7-6.4-1.7c-3.5,0-6.1,0.8-7.7,2.3C284.9,40.5,284.1,43,284.1,46.4z"/>
		</g>
		<g id="XMLID_5_">
			<path id="XMLID_32_" d="M7.6,35.3c0-6,1.2-10.1,3.7-12.5c2.5-2.4,6.8-3.5,13.1-3.5h5.9c6.4,0,10.8,1.2,13.2,3.5
				c2.4,2.3,3.7,6.5,3.7,12.5v15.8c0,6-1.2,10.1-3.7,12.5c-2.5,2.3-6.9,3.5-13.1,3.5h-5.9c-6.3,0-10.7-1.2-13.1-3.5
				c-2.5-2.3-3.7-6.5-3.7-12.5V35.3z M28.8,24.2h-2.9c-3.3,0-5.6,0.2-7,0.5c-1.4,0.4-2.5,1-3.5,1.8c-0.9,0.8-1.6,1.9-1.9,3.2
				s-0.6,3.7-0.6,6.9v13.2c0,3.3,0.2,5.6,0.6,6.9c0.4,1.3,1,2.4,1.9,3.2c1,0.8,2.2,1.4,3.5,1.8c1.4,0.4,3.7,0.5,7,0.5h2.9
				c3.3,0,5.6-0.2,7-0.5c1.4-0.4,2.6-1,3.5-1.8c0.9-0.8,1.5-1.8,1.9-3.1c0.4-1.3,0.5-3.6,0.5-7V36.6c0-3.3-0.2-5.6-0.6-6.9
				c-0.4-1.3-1-2.4-1.9-3.2c-1-0.8-2.1-1.4-3.5-1.7C34.4,24.4,32.1,24.2,28.8,24.2z"/>
			<path id="XMLID_21_" d="M51.3,66.6V19.9h4.9v18.4c0.9-1.8,2.2-3.1,3.8-3.9c1.6-0.8,3.8-1.2,6.5-1.2c4.7,0,8,1,10,2.9
				c1.9,1.9,2.9,5.3,2.9,10.1V54c0,4.8-1,8.2-2.9,10.1c-1.9,1.9-5.3,2.9-10,2.9c-2.8,0-5.1-0.4-6.8-1.3c-1.7-0.9-2.9-2.3-3.7-4.2
				v5.1H51.3z M56.2,47.4v5.4c0,3.4,0.8,5.9,2.4,7.5c1.6,1.6,4.2,2.3,7.7,2.3c3.2,0,5.3-0.6,6.4-1.7c1.1-1.2,1.6-3.8,1.6-8v-5.6
				c0-4.2-0.5-6.8-1.6-8c-1.1-1.1-3.2-1.7-6.4-1.7c-3.5,0-6.1,0.8-7.7,2.3C57,41.5,56.2,44,56.2,47.4z"/>
			<path id="XMLID_16_" d="M88.9,71.4c0,2.6-0.6,4.6-1.7,5.9c-1.1,1.3-2.8,1.9-5,1.9c-0.3,0-0.6,0-1,0c-0.4,0-0.8-0.1-1.3-0.1l0-3.9
				h1.7c0.9,0,1.5-0.4,1.9-1.1c0.3-0.7,0.5-2.5,0.5-5.3V33.6h4.9V71.4z M84,25.4v-5.5h4.9v5.5H84z"/>
			<path id="XMLID_12_" d="M105.7,67.1c-4.9,0-8.4-1-10.4-2.9c-2-1.9-2.9-5.3-2.9-10.1v-7.8c0-4.9,1-8.2,2.9-10.2
				c2-1.9,5.4-2.9,10.3-2.9h2.3c4.9,0,8.4,1,10.4,2.9c2,1.9,2.9,5.3,2.9,10.2v5l-23.7,0c0,0.3,0,0.7,0,1.1c0,0.4,0,1,0,1.7
				c0,3.4,0.5,5.7,1.6,6.9c1.1,1.2,3.3,1.7,6.6,1.7h2.3c2.9,0,5-0.4,6.1-1.3c1.2-0.8,1.8-2.3,2-4.4h5.1c-0.3,3.6-1.4,6.2-3.5,7.7
				c-2,1.6-5.3,2.4-9.7,2.4H105.7z M97.5,46.9h18.7v-1.3c0-3.1-0.6-5.2-1.7-6.3c-1.1-1.1-3.3-1.7-6.6-1.7h-2.3
				c-3.3,0-5.4,0.6-6.5,1.7c-1.1,1.1-1.6,3.2-1.6,6.3V46.9z"/>
			<path id="XMLID_10_" d="M136.9,67.1c-4.9,0-8.4-1-10.4-2.9c-2-1.9-2.9-5.3-2.9-10.1v-7.8c0-4.9,1-8.2,2.9-10.2
				c2-1.9,5.4-2.9,10.3-2.9h2.3c4.7,0,8,0.9,10.1,2.7c2.1,1.8,3.1,4.7,3.2,8.8l-5,0c-0.1-2.7-0.7-4.5-1.8-5.5
				c-1.1-1-3.3-1.5-6.4-1.5h-2.3c-3.4,0-5.6,0.6-6.6,1.7c-1,1.1-1.6,3.8-1.6,8v5.6c0,4.2,0.5,6.9,1.6,8c1,1.1,3.2,1.7,6.6,1.7h2.3
				c3.2,0,5.4-0.5,6.5-1.6c1.1-1.1,1.7-3.1,1.7-6v-0.6h5V55c0,4.3-1,7.4-3.1,9.2c-2,1.9-5.4,2.8-10.2,2.8H136.9z"/>
			<path id="XMLID_8_" d="M152.8,37.8v-4.2h4v-7.4h4.9v7.4h16.2v4.2h-16.2V56c0,2.6,0.4,4.4,1.3,5.3c0.8,0.9,2.5,1.4,4.8,1.4
				c2.4,0,4-0.4,4.8-1.3c0.8-0.9,1.2-2.7,1.2-5.3v-1h5v0.3c0,4.6-0.8,7.8-2.3,9.4c-1.5,1.6-4.7,2.4-9.6,2.4c-3.8,0-6.4-0.9-7.9-2.6
				c-1.5-1.7-2.2-4.8-2.2-9.2V37.8H152.8z"/>
			<path id="XMLID_6_" d="M181.7,66.6v-6.8h5.5v6.8H181.7z"/>
		</g>
	</g>
</g>
</svg>
