<?xml version="1.0" encoding="UTF-8" standalone="no"?>
<!-- Created with Inkscape (http://www.inkscape.org/) -->

<svg
   width="24mm"
   height="15mm"
   viewBox="0 0 24 15"
   version="1.1"
   id="svg225"
   inkscape:version="1.1 (c68e22c387, 2021-05-23)"
   sodipodi:docname="pureleap_logo.svg"
   xmlns:inkscape="http://www.inkscape.org/namespaces/inkscape"
   xmlns:sodipodi="http://sodipodi.sourceforge.net/DTD/sodipodi-0.dtd"
   xmlns="http://www.w3.org/2000/svg"
   xmlns:svg="http://www.w3.org/2000/svg">
  <sodipodi:namedview
     id="namedview227"
     pagecolor="#ffffff"
     bordercolor="#666666"
     borderopacity="1.0"
     inkscape:pageshadow="2"
     inkscape:pageopacity="0.0"
     inkscape:pagecheckerboard="true"
     inkscape:document-units="mm"
     showgrid="false"
     inkscape:zoom="0.67081229"
     inkscape:cx="396.53418"
     inkscape:cy="561.25984"
     inkscape:window-width="1920"
     inkscape:window-height="1057"
     inkscape:window-x="-8"
     inkscape:window-y="-8"
     inkscape:window-maximized="1"
     inkscape:current-layer="layer1" />
  <defs
     id="defs222" />
  <g
     inkscape:label="Layer 1"
     inkscape:groupmode="layer"
     id="layer1">
    <g
       transform="matrix(0.26458333,0,0,0.26458333,2.2135823,6.7390662)"
       stroke="none"
       id="g206"
       style="fill:#001415;fill-opacity:1">
      <path
         fill="#000000"
         d="m 1.73,-1.38 q 0,0 1.11,1.46 1.11,1.46 2.36,2.93 1.25,1.47 2.62,2.99 1.37,1.52 3.11,3.68 1.75,2.16 2.64,3.38 0.88,1.22 1.63,3.24 0.76,2.03 0.83,3.73 0.07,1.69 -0.27,2.87 -0.34,1.18 -1.09,1.94 -0.74,0.77 -3.03,0.89 Q 9.36,25.85 8.3,25.44 7.25,25.03 6.01,24.13 4.77,23.24 3.44,22.53 2.1,21.83 0.79,20.29 -0.5,18.75 -0.63,17.62 -0.76,16.49 0.02,14.87 0.8,13.24 3.62,11.83 6.45,10.41 14.26,7.97 22.08,5.53 30.19,2.58 q 8.1,-2.93 15.64,-5.31 7.55,-2.39 13.59,-4.5 6.05,-2.12 9.45,-3.56 3.4,-1.44 4.72,-2.34 1.32,-0.9 0.12,-0.2 -1.2,0.71 -3.63,0.56 -2.43,-0.16 -6.06,-0.27 -3.64,-0.11 -7.49,-0.18 -3.85,-0.08 -6.05,-0.13 -2.2,-0.06 -4.55,0 -2.35,0.06 -2.61,-0.05 -0.26,-0.11 -0.47,-0.3 -0.22,-0.19 -0.36,-0.43 -0.14,-0.25 -0.19,-0.53 -0.06,-0.28 -0.02,-0.56 0.03,-0.28 0.16,-0.53 0.12,-0.26 0.32,-0.46 0.2,-0.2 0.45,-0.33 0.26,-0.13 0.54,-0.17 0.28,-0.04 0.56,0.01 0.28,0.05 0.53,0.19 0.25,0.14 0.44,0.35 0.19,0.21 0.3,0.47 0.12,0.26 0.14,0.54 0.03,0.29 -0.04,0.56 -0.07,0.28 -0.22,0.52 -0.15,0.24 -0.37,0.42 -0.22,0.18 -0.49,0.28 -0.26,0.1 -0.55,0.11 -0.28,0.01 -0.55,-0.08 -0.27,-0.08 -0.51,-0.24 -0.23,-0.17 -0.4,-0.39 -0.16,-0.23 -0.25,-0.51 -0.08,-0.27 -0.08,-0.55 0.01,-0.28 0.1,-0.55 0.1,-0.27 0.28,-0.49 0.17,-0.22 0.41,-0.38 0.24,-0.15 0.52,-0.22 0.27,-0.07 0.55,-0.05 0.29,0.02 0.29,0.02 0,0 1.92,0.06 1.92,0.07 4.14,0.02 2.22,-0.05 6.07,-0.12 3.85,-0.06 7.51,-0.14 3.66,-0.08 6.22,-0.16 2.56,-0.09 3.92,0.1 1.36,0.18 2.35,0.82 1,0.63 1.27,1.85 0.27,1.23 -0.39,2.14 -0.66,0.92 -2.26,1.87 -1.59,0.96 -5.06,2.54 -3.47,1.57 -9.52,3.85 -6.05,2.27 -13.44,4.8 -7.4,2.53 -15.5,5.75 -8.1,3.22 -15.42,5.82 -7.31,2.59 -9.66,3.03 -2.34,0.43 -1.36,1.42 0.98,0.98 2.59,2.07 1.62,1.09 2.77,1.9 1.16,0.81 1.12,-0.57 -0.04,-1.38 -0.2,-2.73 Q 11.33,16.26 10.72,15.15 10.1,14.03 8.33,12.05 6.56,10.06 5.05,8.61 3.54,7.15 2.09,5.67 0.64,4.2 -0.54,2.79 -1.73,1.38 -1.87,1.15 -2.01,0.93 -2.09,0.67 -2.17,0.42 -2.19,0.15 q -0.02,-0.26 0.03,-0.52 0.04,-0.26 0.15,-0.51 0.11,-0.24 0.27,-0.46 0.16,-0.21 0.37,-0.37 0.21,-0.17 0.45,-0.28 0.24,-0.12 0.51,-0.17 0.26,-0.05 0.52,-0.03 0.26,0.01 0.52,0.09 0.25,0.07 0.48,0.21 0.23,0.14 0.43,0.32 0.19,0.19 0.19,0.19 z"
         id="path204"
         style="fill:#001415;fill-opacity:1" />
    </g>
  </g>
</svg>
